<?xml version="1.0" encoding="UTF-8" standalone="no"?>
<!DOCTYPE svg PUBLIC "-//W3C//DTD SVG 1.1//EN" "http://www.w3.org/Graphics/SVG/1.1/DTD/svg11.dtd">
<svg width="100%" height="100%" viewBox="0 0 500 361" version="1.1" xmlns="http://www.w3.org/2000/svg" xmlns:xlink="http://www.w3.org/1999/xlink" xml:space="preserve" xmlns:serif="http://www.serif.com/" style="fill-rule:evenodd;clip-rule:evenodd;stroke-linejoin:round;stroke-miterlimit:2;">
    <g id="seb" transform="matrix(1.28969,0,0,1.279242,221.204238,319.95408)">
        <g transform="matrix(250,0,0,250,-139.375,0)">
            <path d="M0.234,0.027C0.199,0.027 0.173,0.019 0.154,0.003C0.136,-0.013 0.127,-0.031 0.127,-0.051C0.127,-0.068 0.133,-0.083 0.146,-0.096C0.159,-0.109 0.177,-0.115 0.202,-0.115C0.211,-0.115 0.221,-0.114 0.233,-0.113C0.244,-0.111 0.253,-0.11 0.259,-0.109C0.258,-0.126 0.255,-0.143 0.247,-0.158C0.241,-0.173 0.232,-0.188 0.221,-0.203C0.21,-0.217 0.2,-0.229 0.191,-0.24C0.17,-0.201 0.15,-0.168 0.13,-0.142C0.109,-0.116 0.087,-0.091 0.063,-0.068C0.051,-0.056 0.038,-0.05 0.025,-0.05C0.014,-0.05 0.006,-0.054 -0.001,-0.061C-0.008,-0.069 -0.011,-0.079 -0.011,-0.09C-0.011,-0.103 -0.006,-0.116 0.003,-0.127L0.016,-0.143C0.053,-0.188 0.08,-0.226 0.099,-0.255C0.11,-0.274 0.124,-0.3 0.139,-0.333C0.154,-0.365 0.169,-0.398 0.184,-0.433C0.197,-0.462 0.223,-0.477 0.263,-0.477C0.282,-0.477 0.295,-0.475 0.302,-0.472C0.309,-0.469 0.313,-0.463 0.313,-0.456C0.313,-0.452 0.312,-0.446 0.309,-0.437C0.306,-0.428 0.303,-0.42 0.298,-0.411C0.286,-0.387 0.28,-0.367 0.28,-0.35C0.28,-0.34 0.284,-0.329 0.29,-0.317C0.297,-0.305 0.308,-0.29 0.323,-0.272C0.344,-0.244 0.36,-0.22 0.371,-0.201C0.383,-0.181 0.388,-0.159 0.388,-0.136C0.388,-0.129 0.387,-0.12 0.386,-0.108C0.419,-0.121 0.457,-0.154 0.501,-0.209C0.509,-0.218 0.518,-0.223 0.528,-0.223C0.537,-0.223 0.543,-0.219 0.548,-0.211C0.553,-0.203 0.556,-0.192 0.556,-0.178C0.556,-0.153 0.55,-0.132 0.537,-0.116C0.504,-0.075 0.472,-0.047 0.442,-0.032C0.411,-0.017 0.374,-0.008 0.329,-0.007C0.302,0.016 0.271,0.027 0.234,0.027Z" style="fill:rgb(255,145,0);fill-rule:nonzero;"/>
        </g>
        <g transform="matrix(250,0,0,250,-47.625,0)">
            <path d="M0.494,-0.223C0.503,-0.223 0.509,-0.219 0.514,-0.211C0.519,-0.203 0.522,-0.192 0.522,-0.178C0.522,-0.151 0.516,-0.131 0.503,-0.116C0.478,-0.086 0.444,-0.058 0.399,-0.033C0.353,-0.008 0.305,0.005 0.254,0.005C0.184,0.005 0.13,-0.014 0.091,-0.052C0.052,-0.09 0.033,-0.142 0.033,-0.208C0.033,-0.254 0.043,-0.297 0.062,-0.337C0.081,-0.376 0.108,-0.408 0.143,-0.431C0.177,-0.454 0.216,-0.466 0.259,-0.466C0.298,-0.466 0.329,-0.455 0.352,-0.431C0.375,-0.409 0.387,-0.377 0.387,-0.338C0.387,-0.292 0.37,-0.253 0.338,-0.22C0.305,-0.186 0.249,-0.16 0.17,-0.141C0.187,-0.11 0.218,-0.095 0.265,-0.095C0.295,-0.095 0.329,-0.105 0.367,-0.127C0.406,-0.147 0.439,-0.175 0.467,-0.209C0.475,-0.218 0.484,-0.223 0.494,-0.223ZM0.242,-0.368C0.217,-0.368 0.197,-0.354 0.179,-0.325C0.163,-0.296 0.154,-0.262 0.154,-0.221L0.154,-0.219C0.193,-0.228 0.224,-0.242 0.247,-0.261C0.27,-0.28 0.281,-0.301 0.281,-0.326C0.281,-0.339 0.278,-0.349 0.271,-0.356C0.264,-0.364 0.254,-0.368 0.242,-0.368Z" style="fill:rgb(255,145,0);fill-rule:nonzero;"/>
        </g>
        <g transform="matrix(250,0,0,250,35.625,0)">
            <path d="M0.246,0.005C0.179,0.005 0.131,-0.021 0.101,-0.072C0.07,-0.123 0.055,-0.198 0.055,-0.295C0.055,-0.381 0.066,-0.474 0.087,-0.576C0.108,-0.676 0.139,-0.763 0.18,-0.834C0.222,-0.905 0.27,-0.94 0.327,-0.94C0.358,-0.94 0.382,-0.927 0.401,-0.9C0.42,-0.874 0.429,-0.84 0.429,-0.798C0.429,-0.743 0.419,-0.689 0.398,-0.635C0.377,-0.581 0.343,-0.524 0.295,-0.465C0.328,-0.462 0.356,-0.451 0.381,-0.432C0.405,-0.413 0.423,-0.388 0.436,-0.357C0.45,-0.326 0.456,-0.293 0.456,-0.257C0.456,-0.207 0.446,-0.162 0.426,-0.122C0.407,-0.082 0.381,-0.051 0.349,-0.029C0.317,-0.006 0.283,0.005 0.246,0.005ZM0.187,-0.397C0.231,-0.478 0.266,-0.549 0.292,-0.611C0.319,-0.672 0.332,-0.727 0.332,-0.775C0.332,-0.796 0.33,-0.813 0.325,-0.824C0.32,-0.835 0.313,-0.841 0.304,-0.841C0.291,-0.841 0.276,-0.821 0.261,-0.781C0.245,-0.742 0.23,-0.688 0.217,-0.62C0.204,-0.552 0.194,-0.478 0.187,-0.397ZM0.25,-0.103C0.273,-0.103 0.292,-0.115 0.307,-0.14C0.323,-0.165 0.331,-0.201 0.331,-0.248C0.331,-0.285 0.324,-0.312 0.311,-0.331C0.298,-0.35 0.282,-0.359 0.263,-0.359C0.24,-0.359 0.22,-0.347 0.204,-0.323C0.188,-0.299 0.18,-0.264 0.18,-0.218C0.18,-0.178 0.187,-0.149 0.2,-0.131C0.213,-0.112 0.23,-0.103 0.25,-0.103Z" style="fill:rgb(255,145,0);fill-rule:nonzero;"/>
        </g>
    </g>
</svg>
